<svg xmlns="http://www.w3.org/2000/svg" version="1.1" xmlns:xlink="http://www.w3.org/1999/xlink" xmlns:svgjs="http://svgjs.dev/svgjs" viewBox="0 0 18.29351493578911 3.272682970376376"><g transform="matrix(1,0,0,1,3.797956497184336,0.6447852351881879)"><g><path d=" M 0.5955 0 Q 0.6945 0 0.75825 0.029249999999999998 Q 0.8220000000000001 0.058499999999999996 0.8715 0.09749999999999992 Q 0.9015 0.12 0.91725 0.1027499999999999 Q 0.933 0.08549999999999991 0.9390000000000001 0.020999999999999908 L 0.9735 0.020999999999999908 Q 0.9705 0.0794999999999999 0.969 0.16274999999999995 Q 0.9675 0.246 0.9675 0.3839999999999999 L 0.933 0.3839999999999999 Q 0.9255 0.31499999999999995 0.9135 0.26625 Q 0.9015 0.21749999999999992 0.8805000000000001 0.17999999999999994 Q 0.8595 0.14249999999999996 0.8205 0.11249999999999993 Q 0.783 0.07499999999999996 0.7335 0.05699999999999994 Q 0.684 0.038999999999999924 0.63 0.038999999999999924 Q 0.549 0.038999999999999924 0.492 0.08174999999999999 Q 0.435 0.12449999999999994 0.39975 0.19799999999999995 Q 0.3645 0.27149999999999996 0.34800000000000003 0.3637499999999999 Q 0.3315 0.45599999999999996 0.3315 0.5549999999999999 Q 0.3315 0.6555 0.34875 0.7477499999999999 Q 0.366 0.84 0.40275 0.9119999999999999 Q 0.4395 0.984 0.498 1.026 Q 0.5565 1.068 0.636 1.068 Q 0.6855 1.068 0.73575 1.04925 Q 0.786 1.0305 0.8220000000000001 0.9944999999999999 Q 0.8805000000000001 0.9495 0.9015 0.8827499999999999 Q 0.9225 0.816 0.933 0.705 L 0.9675 0.705 Q 0.9675 0.8474999999999999 0.969 0.9352499999999999 Q 0.9705 1.023 0.9735 1.083 L 0.9390000000000001 1.083 Q 0.933 1.0185 0.9187500000000001 1.002 Q 0.9045 0.9854999999999999 0.8715 1.0065 Q 0.8160000000000001 1.0454999999999999 0.75375 1.0747499999999999 Q 0.6915 1.1039999999999999 0.594 1.1039999999999999 Q 0.435 1.1039999999999999 0.31575000000000003 1.0394999999999999 Q 0.1965 0.975 0.1305 0.8534999999999999 Q 0.0645 0.732 0.0645 0.5609999999999999 Q 0.0645 0.3929999999999999 0.13275 0.2669999999999999 Q 0.201 0.1409999999999999 0.32025 0.07050000000000001 Q 0.4395 0 0.5955 0 M 1.572025634765625 0.020999999999999908 Q 1.867525634765625 0.020999999999999908 2.011525634765625 0.1552499999999999 Q 2.155525634765625 0.2895 2.155525634765625 0.5399999999999999 Q 2.155525634765625 0.7035 2.085025634765625 0.82575 Q 2.014525634765625 0.948 1.880275634765625 1.0154999999999998 Q 1.746025634765625 1.083 1.558525634765625 1.083 Q 1.522525634765625 1.083 1.455775634765625 1.0807499999999999 Q 1.3890256347656251 1.0785 1.339525634765625 1.0785 Q 1.273525634765625 1.0785 1.209775634765625 1.07925 Q 1.146025634765625 1.08 1.108525634765625 1.083 L 1.108525634765625 1.053 Q 1.156525634765625 1.05 1.180525634765625 1.041 Q 1.204525634765625 1.032 1.212775634765625 1.005 Q 1.221025634765625 0.978 1.221025634765625 0.9239999999999999 L 1.221025634765625 0.17999999999999994 Q 1.221025634765625 0.12449999999999994 1.212775634765625 0.09824999999999995 Q 1.204525634765625 0.07199999999999984 1.179775634765625 0.062249999999999917 Q 1.155025634765625 0.05249999999999999 1.108525634765625 0.050999999999999934 L 1.108525634765625 0.020999999999999908 Q 1.146025634765625 0.022499999999999964 1.209775634765625 0.02475000000000005 Q 1.273525634765625 0.026999999999999913 1.336525634765625 0.025499999999999856 Q 1.390525634765625 0.02400000000000002 1.458775634765625 0.022499999999999964 Q 1.527025634765625 0.020999999999999908 1.572025634765625 0.020999999999999908 M 1.570525634765625 0.04800000000000004 Q 1.501525634765625 0.04800000000000004 1.480525634765625 0.0734999999999999 Q 1.4595256347656251 0.09899999999999998 1.4595256347656251 0.17699999999999994 L 1.4595256347656251 0.9269999999999999 Q 1.4595256347656251 1.005 1.481275634765625 1.0305 Q 1.503025634765625 1.056 1.572025634765625 1.056 Q 1.6980256347656248 1.056 1.770775634765625 0.9967499999999999 Q 1.843525634765625 0.9375 1.875025634765625 0.8234999999999999 Q 1.906525634765625 0.7095 1.906525634765625 0.5459999999999999 Q 1.906525634765625 0.29399999999999993 1.828525634765625 0.17099999999999993 Q 1.750525634765625 0.04800000000000004 1.570525634765625 0.04800000000000004 M 3.2475688476562503 0.020999999999999908 L 3.2475688476562503 0.050999999999999934 Q 3.1995688476562503 0.05699999999999994 3.1755688476562502 0.07574999999999998 Q 3.1515688476562502 0.09449999999999992 3.14331884765625 0.1349999999999999 Q 3.13506884765625 0.1755 3.13506884765625 0.249 L 3.13506884765625 1.0859999999999999 Q 3.11706884765625 1.0845 3.09831884765625 1.0845 Q 3.07956884765625 1.0845 3.0585688476562503 1.0859999999999999 L 2.40756884765625 0.2609999999999999 L 2.40756884765625 0.837 Q 2.40756884765625 0.9195 2.41656884765625 0.96375 Q 2.42556884765625 1.008 2.45631884765625 1.02675 Q 2.48706884765625 1.0454999999999999 2.55306884765625 1.053 L 2.55306884765625 1.083 Q 2.52456884765625 1.08 2.47806884765625 1.07925 Q 2.43156884765625 1.0785 2.39106884765625 1.0785 Q 2.35656884765625 1.0785 2.32056884765625 1.07925 Q 2.28456884765625 1.08 2.26056884765625 1.083 L 2.26056884765625 1.053 Q 2.30856884765625 1.0454999999999999 2.33256884765625 1.0274999999999999 Q 2.35656884765625 1.0095 2.36481884765625 0.9682499999999999 Q 2.37306884765625 0.9269999999999999 2.37306884765625 0.855 L 2.37306884765625 0.17999999999999994 Q 2.37306884765625 0.12449999999999994 2.36481884765625 0.09824999999999995 Q 2.35656884765625 0.07199999999999984 2.33181884765625 0.062249999999999917 Q 2.30706884765625 0.05249999999999999 2.26056884765625 0.050999999999999934 L 2.26056884765625 0.020999999999999908 Q 2.28456884765625 0.022499999999999964 2.32056884765625 0.02400000000000002 Q 2.35656884765625 0.025499999999999856 2.39106884765625 0.025499999999999856 Q 2.42706884765625 0.025499999999999856 2.46006884765625 0.02400000000000002 Q 2.49306884765625 0.022499999999999964 2.52006884765625 0.020999999999999908 L 3.10056884765625 0.7364999999999999 L 3.10056884765625 0.2669999999999999 Q 3.10056884765625 0.1845 3.09156884765625 0.14024999999999999 Q 3.0825688476562503 0.09599999999999997 3.05181884765625 0.07650000000000001 Q 3.02106884765625 0.05699999999999994 2.95506884765625 0.050999999999999934 L 2.95506884765625 0.020999999999999908 Q 2.98356884765625 0.022499999999999964 3.03006884765625 0.02400000000000002 Q 3.07656884765625 0.025499999999999856 3.11706884765625 0.025499999999999856 Q 3.1530688476562503 0.025499999999999856 3.18831884765625 0.02400000000000002 Q 3.2235688476562503 0.022499999999999964 3.2475688476562503 0.020999999999999908 M 4.134000732421875 0.018000000000000016 L 4.498500732421875 0.957 Q 4.519500732421875 1.011 4.545750732421875 1.03125 Q 4.572000732421875 1.0514999999999999 4.593000732421875 1.053 L 4.593000732421875 1.083 Q 4.548000732421875 1.08 4.487250732421875 1.07925 Q 4.426500732421875 1.0785 4.365000732421875 1.0785 Q 4.296000732421875 1.0785 4.234500732421875 1.07925 Q 4.173000732421875 1.08 4.137000732421875 1.083 L 4.137000732421875 1.053 Q 4.213500732421875 1.05 4.233750732421875 1.02675 Q 4.254000732421875 1.0035 4.224000732421875 0.9269999999999999 L 3.969000732421875 0.22949999999999993 L 3.996000732421875 0.1904999999999999 L 3.768000732421875 0.7845 Q 3.726000732421875 0.8955 3.726750732421875 0.9524999999999999 Q 3.727500732421875 1.0095 3.7635007324218748 1.02975 Q 3.799500732421875 1.05 3.859500732421875 1.053 L 3.859500732421875 1.083 Q 3.810000732421875 1.08 3.765000732421875 1.07925 Q 3.720000732421875 1.0785 3.673500732421875 1.0785 Q 3.640500732421875 1.0785 3.611250732421875 1.07925 Q 3.582000732421875 1.08 3.559500732421875 1.083 L 3.559500732421875 1.053 Q 3.591000732421875 1.047 3.624000732421875 1.0125 Q 3.657000732421875 0.978 3.688500732421875 0.8955 L 4.030500732421875 0.018000000000000016 Q 4.054500732421875 0.01949999999999985 4.082250732421875 0.01949999999999985 Q 4.1100007324218755 0.01949999999999985 4.134000732421875 0.018000000000000016 M 4.239000732421875 0.651 L 4.239000732421875 0.6809999999999999 L 3.792000732421875 0.6809999999999999 L 3.807000732421875 0.651 L 4.239000732421875 0.651 M 5.588989013671875 0.020999999999999908 L 5.588989013671875 0.050999999999999934 Q 5.540989013671875 0.05699999999999994 5.516239013671875 0.07574999999999998 Q 5.491489013671875 0.09449999999999992 5.483989013671875 0.1349999999999999 Q 5.476489013671875 0.1755 5.476489013671875 0.249 L 5.476489013671875 0.6465 Q 5.476489013671875 0.744 5.462989013671875 0.825 Q 5.449489013671875 0.9059999999999999 5.414989013671875 0.9644999999999999 Q 5.375989013671875 1.029 5.300989013671875 1.0665 Q 5.2259890136718745 1.1039999999999999 5.1104890136718755 1.1039999999999999 Q 5.041489013671875 1.1039999999999999 4.9694890136718755 1.08825 Q 4.897489013671875 1.0725 4.840489013671875 1.029 Q 4.792489013671875 0.9884999999999999 4.766989013671875 0.9375 Q 4.741489013671875 0.8865 4.732489013671875 0.81675 Q 4.723489013671875 0.7469999999999999 4.723489013671875 0.651 L 4.723489013671875 0.17999999999999994 Q 4.723489013671875 0.12449999999999994 4.715239013671875 0.09824999999999995 Q 4.706989013671875 0.07199999999999984 4.682989013671875 0.062249999999999917 Q 4.658989013671875 0.05249999999999999 4.610989013671875 0.050999999999999934 L 4.610989013671875 0.020999999999999908 Q 4.648489013671875 0.022499999999999964 4.712239013671875 0.02400000000000002 Q 4.775989013671875 0.025499999999999856 4.844989013671875 0.025499999999999856 Q 4.913989013671875 0.025499999999999856 4.977739013671875 0.02400000000000002 Q 5.041489013671875 0.022499999999999964 5.083489013671875 0.020999999999999908 L 5.083489013671875 0.050999999999999934 Q 5.032489013671875 0.05249999999999999 5.006239013671875 0.062249999999999917 Q 4.979989013671875 0.07199999999999984 4.970989013671875 0.09824999999999995 Q 4.961989013671875 0.12449999999999994 4.961989013671875 0.17999999999999994 L 4.961989013671875 0.7454999999999999 Q 4.961989013671875 0.846 4.979989013671875 0.91425 Q 4.997989013671875 0.9824999999999999 5.043739013671875 1.017 Q 5.089489013671875 1.0514999999999999 5.168989013671875 1.0514999999999999 Q 5.273989013671875 1.0514999999999999 5.333239013671875 1.002 Q 5.3924890136718755 0.9524999999999999 5.417239013671875 0.8647499999999999 Q 5.441989013671875 0.7769999999999999 5.441989013671875 0.663 L 5.441989013671875 0.2669999999999999 Q 5.441989013671875 0.1845 5.431489013671875 0.14024999999999999 Q 5.420989013671875 0.09599999999999997 5.390239013671875 0.07650000000000001 Q 5.359489013671875 0.05699999999999994 5.296489013671875 0.050999999999999934 L 5.296489013671875 0.020999999999999908 Q 5.324989013671875 0.022499999999999964 5.371489013671875 0.02400000000000002 Q 5.417989013671875 0.025499999999999856 5.458489013671875 0.025499999999999856 Q 5.494489013671875 0.025499999999999856 5.529739013671875 0.02400000000000002 Q 5.564989013671875 0.022499999999999964 5.588989013671875 0.020999999999999908 M 6.57902783203125 0.020999999999999908 Q 6.57302783203125 0.09749999999999992 6.57077783203125 0.16799999999999993 Q 6.56852783203125 0.23849999999999993 6.56852783203125 0.2759999999999999 Q 6.56852783203125 0.30899999999999994 6.57002783203125 0.33899999999999997 Q 6.57152783203125 0.369 6.57302783203125 0.3899999999999999 L 6.53852783203125 0.3899999999999999 Q 6.51452783203125 0.2639999999999999 6.47777783203125 0.1904999999999999 Q 6.44102783203125 0.11699999999999999 6.39002783203125 0.08624999999999994 Q 6.33902783203125 0.05549999999999988 6.27002783203125 0.05549999999999988 L 6.23552783203125 0.05549999999999988 L 6.23552783203125 0.9119999999999999 Q 6.23552783203125 0.972 6.24827783203125 1.002 Q 6.26102783203125 1.032 6.29552783203125 1.04175 Q 6.33002783203125 1.0514999999999999 6.39602783203125 1.053 L 6.39602783203125 1.083 Q 6.34952783203125 1.0815 6.27227783203125 1.08 Q 6.19502783203125 1.0785 6.11102783203125 1.0785 Q 6.02852783203125 1.0785 5.95502783203125 1.08 Q 5.88152783203125 1.0815 5.83652783203125 1.083 L 5.83652783203125 1.053 Q 5.90402783203125 1.0514999999999999 5.93852783203125 1.04175 Q 5.97302783203125 1.032 5.98502783203125 1.002 Q 5.99702783203125 0.972 5.99702783203125 0.9119999999999999 L 5.99702783203125 0.05549999999999988 L 5.96402783203125 0.05549999999999988 Q 5.89502783203125 0.05549999999999988 5.84402783203125 0.08624999999999994 Q 5.79302783203125 0.11699999999999999 5.75702783203125 0.18974999999999997 Q 5.72102783203125 0.26249999999999996 5.69402783203125 0.3899999999999999 L 5.65952783203125 0.3899999999999999 Q 5.66252783203125 0.369 5.66327783203125 0.33899999999999997 Q 5.66402783203125 0.30899999999999994 5.66402783203125 0.2759999999999999 Q 5.66402783203125 0.23849999999999993 5.66177783203125 0.16799999999999993 Q 5.65952783203125 0.09749999999999992 5.65352783203125 0.020999999999999908 Q 5.72252783203125 0.022499999999999964 5.80427783203125 0.02400000000000002 Q 5.88602783203125 0.025499999999999856 5.96852783203125 0.025499999999999856 Q 6.05102783203125 0.025499999999999856 6.11702783203125 0.025499999999999856 Q 6.18452783203125 0.025499999999999856 6.26627783203125 0.025499999999999856 Q 6.34802783203125 0.025499999999999856 6.43052783203125 0.02400000000000002 Q 6.51302783203125 0.022499999999999964 6.57902783203125 0.020999999999999908 M 7.213572509765625 0 Q 7.372572509765625 0 7.491822509765625 0.0645 Q 7.611072509765625 0.1289999999999999 7.677072509765625 0.24974999999999992 Q 7.743072509765625 0.37049999999999994 7.743072509765625 0.5429999999999999 Q 7.743072509765625 0.711 7.675572509765625 0.837 Q 7.608072509765625 0.963 7.487322509765625 1.0334999999999999 Q 7.366572509765625 1.1039999999999999 7.212072509765625 1.1039999999999999 Q 7.053072509765625 1.1039999999999999 6.933822509765625 1.0394999999999999 Q 6.814572509765625 0.975 6.748572509765625 0.8534999999999999 Q 6.682572509765625 0.732 6.682572509765625 0.5609999999999999 Q 6.682572509765625 0.3929999999999999 6.750822509765625 0.2669999999999999 Q 6.819072509765625 0.1409999999999999 6.938322509765625 0.07050000000000001 Q 7.057572509765625 0 7.213572509765625 0 M 7.207572509765625 0.026999999999999913 Q 7.123572509765625 0.026999999999999913 7.061322509765625 0.09449999999999992 Q 6.999072509765625 0.16199999999999992 6.965322509765625 0.28049999999999997 Q 6.931572509765625 0.3989999999999999 6.931572509765625 0.5549999999999999 Q 6.931572509765625 0.714 6.969822509765625 0.83175 Q 7.008072509765625 0.9495 7.073322509765625 1.01325 Q 7.138572509765625 1.077 7.218072509765625 1.077 Q 7.302072509765625 1.077 7.364322509765625 1.0095 Q 7.426572509765625 0.942 7.460322509765625 0.82275 Q 7.494072509765625 0.7035 7.494072509765625 0.5489999999999999 Q 7.494072509765625 0.38849999999999996 7.455822509765625 0.27149999999999996 Q 7.417572509765625 0.15449999999999997 7.352322509765625 0.09075 Q 7.2870725097656255 0.026999999999999913 7.207572509765625 0.026999999999999913 M 9.136623779296874 0.020999999999999908 L 9.136623779296874 0.050999999999999934 Q 9.088623779296874 0.05249999999999999 9.064623779296875 0.062249999999999917 Q 9.040623779296876 0.07199999999999984 9.032373779296876 0.09824999999999995 Q 9.024123779296875 0.12449999999999994 9.024123779296875 0.17999999999999994 L 9.024123779296875 0.9239999999999999 Q 9.024123779296875 0.978 9.032373779296876 1.005 Q 9.040623779296876 1.032 9.064623779296875 1.041 Q 9.088623779296874 1.05 9.136623779296874 1.053 L 9.136623779296874 1.083 Q 9.094623779296874 1.08 9.030873779296876 1.07925 Q 8.967123779296875 1.0785 8.901123779296874 1.0785 Q 8.829123779296875 1.0785 8.766123779296874 1.07925 Q 8.703123779296876 1.08 8.664123779296876 1.083 L 8.664123779296876 1.053 Q 8.715123779296874 1.05 8.741373779296875 1.041 Q 8.767623779296875 1.032 8.776623779296875 1.005 Q 8.785623779296875 0.978 8.785623779296875 0.9239999999999999 L 8.785623779296875 0.11249999999999993 L 8.796123779296876 0.11249999999999993 L 8.424123779296876 1.0845 L 8.400123779296875 1.0845 L 7.9951237792968755 0.11849999999999994 L 7.9951237792968755 0.837 Q 7.9951237792968755 0.9195 8.004123779296876 0.96375 Q 8.013123779296874 1.008 8.043873779296876 1.02675 Q 8.074623779296875 1.0454999999999999 8.140623779296876 1.053 L 8.140623779296876 1.083 Q 8.112123779296875 1.08 8.065623779296875 1.07925 Q 8.019123779296875 1.0785 7.978623779296875 1.0785 Q 7.944123779296875 1.0785 7.908123779296875 1.07925 Q 7.872123779296875 1.08 7.848123779296875 1.083 L 7.848123779296875 1.053 Q 7.896123779296875 1.0454999999999999 7.920123779296875 1.0274999999999999 Q 7.944123779296875 1.0095 7.952373779296875 0.9682499999999999 Q 7.960623779296875 0.9269999999999999 7.960623779296875 0.855 L 7.960623779296875 0.17999999999999994 Q 7.960623779296875 0.12449999999999994 7.952373779296875 0.09824999999999995 Q 7.944123779296875 0.07199999999999984 7.919373779296875 0.062249999999999917 Q 7.894623779296875 0.05249999999999999 7.848123779296875 0.050999999999999934 L 7.848123779296875 0.020999999999999908 Q 7.872123779296875 0.022499999999999964 7.908123779296875 0.02400000000000002 Q 7.944123779296875 0.025499999999999856 7.978623779296875 0.025499999999999856 Q 8.043123779296875 0.025499999999999856 8.105373779296874 0.02400000000000002 Q 8.167623779296875 0.022499999999999964 8.215623779296875 0.020999999999999908 L 8.530623779296874 0.7815 L 8.493123779296875 0.816 L 8.794623779296876 0.025499999999999856 Q 8.820123779296875 0.025499999999999856 8.847123779296876 0.025499999999999856 Q 8.874123779296875 0.025499999999999856 8.901123779296874 0.025499999999999856 Q 8.967123779296875 0.025499999999999856 9.030873779296876 0.02400000000000002 Q 9.094623779296874 0.022499999999999964 9.136623779296874 0.020999999999999908 M 9.738126708984375 0.018000000000000016 L 10.102626708984374 0.957 Q 10.123626708984375 1.011 10.149876708984374 1.03125 Q 10.176126708984375 1.0514999999999999 10.197126708984374 1.053 L 10.197126708984374 1.083 Q 10.152126708984374 1.08 10.091376708984376 1.07925 Q 10.030626708984375 1.0785 9.969126708984374 1.0785 Q 9.900126708984375 1.0785 9.838626708984375 1.07925 Q 9.777126708984374 1.08 9.741126708984375 1.083 L 9.741126708984375 1.053 Q 9.817626708984376 1.05 9.837876708984375 1.02675 Q 9.858126708984376 1.0035 9.828126708984374 0.9269999999999999 L 9.573126708984375 0.22949999999999993 L 9.600126708984375 0.1904999999999999 L 9.372126708984375 0.7845 Q 9.330126708984375 0.8955 9.330876708984375 0.9524999999999999 Q 9.331626708984375 1.0095 9.367626708984375 1.02975 Q 9.403626708984374 1.05 9.463626708984375 1.053 L 9.463626708984375 1.083 Q 9.414126708984375 1.08 9.369126708984375 1.07925 Q 9.324126708984375 1.0785 9.277626708984375 1.0785 Q 9.244626708984375 1.0785 9.215376708984374 1.07925 Q 9.186126708984375 1.08 9.163626708984374 1.083 L 9.163626708984374 1.053 Q 9.195126708984375 1.047 9.228126708984375 1.0125 Q 9.261126708984374 0.978 9.292626708984375 0.8955 L 9.634626708984374 0.018000000000000016 Q 9.658626708984375 0.01949999999999985 9.686376708984374 0.01949999999999985 Q 9.714126708984375 0.01949999999999985 9.738126708984375 0.018000000000000016 M 9.843126708984375 0.651 L 9.843126708984375 0.6809999999999999 L 9.396126708984376 0.6809999999999999 L 9.411126708984375 0.651 L 9.843126708984375 0.651 M 11.047625244140624 0.020999999999999908 Q 11.041625244140626 0.09749999999999992 11.039375244140626 0.16799999999999993 Q 11.037125244140626 0.23849999999999993 11.037125244140626 0.2759999999999999 Q 11.037125244140626 0.30899999999999994 11.038625244140626 0.33899999999999997 Q 11.040125244140626 0.369 11.041625244140626 0.3899999999999999 L 11.007125244140624 0.3899999999999999 Q 10.983125244140625 0.2639999999999999 10.946375244140626 0.1904999999999999 Q 10.909625244140624 0.11699999999999999 10.858625244140626 0.08624999999999994 Q 10.807625244140626 0.05549999999999988 10.738625244140625 0.05549999999999988 L 10.704125244140625 0.05549999999999988 L 10.704125244140625 0.9119999999999999 Q 10.704125244140625 0.972 10.716875244140624 1.002 Q 10.729625244140625 1.032 10.764125244140626 1.04175 Q 10.798625244140625 1.0514999999999999 10.864625244140624 1.053 L 10.864625244140624 1.083 Q 10.818125244140624 1.0815 10.740875244140625 1.08 Q 10.663625244140626 1.0785 10.579625244140624 1.0785 Q 10.497125244140625 1.0785 10.423625244140625 1.08 Q 10.350125244140624 1.0815 10.305125244140624 1.083 L 10.305125244140624 1.053 Q 10.372625244140625 1.0514999999999999 10.407125244140625 1.04175 Q 10.441625244140624 1.032 10.453625244140625 1.002 Q 10.465625244140625 0.972 10.465625244140625 0.9119999999999999 L 10.465625244140625 0.05549999999999988 L 10.432625244140626 0.05549999999999988 Q 10.363625244140625 0.05549999999999988 10.312625244140625 0.08624999999999994 Q 10.261625244140625 0.11699999999999999 10.225625244140625 0.18974999999999997 Q 10.189625244140625 0.26249999999999996 10.162625244140624 0.3899999999999999 L 10.128125244140625 0.3899999999999999 Q 10.131125244140625 0.369 10.131875244140625 0.33899999999999997 Q 10.132625244140625 0.30899999999999994 10.132625244140625 0.2759999999999999 Q 10.132625244140625 0.23849999999999993 10.130375244140625 0.16799999999999993 Q 10.128125244140625 0.09749999999999992 10.122125244140625 0.020999999999999908 Q 10.191125244140625 0.022499999999999964 10.272875244140625 0.02400000000000002 Q 10.354625244140625 0.025499999999999856 10.437125244140624 0.025499999999999856 Q 10.519625244140625 0.025499999999999856 10.585625244140624 0.025499999999999856 Q 10.653125244140625 0.025499999999999856 10.734875244140625 0.025499999999999856 Q 10.816625244140624 0.025499999999999856 10.899125244140626 0.02400000000000002 Q 10.981625244140625 0.022499999999999964 11.047625244140624 0.020999999999999908 M 11.601169921875 0.020999999999999908 L 11.601169921875 0.050999999999999934 Q 11.553169921875 0.05249999999999999 11.528419921875 0.062249999999999917 Q 11.503669921875 0.07199999999999984 11.496169921875 0.09824999999999995 Q 11.488669921875 0.12449999999999994 11.488669921875 0.17999999999999994 L 11.488669921875 0.9239999999999999 Q 11.488669921875 0.978 11.496919921875 1.005 Q 11.505169921875 1.032 11.529169921875 1.041 Q 11.553169921875 1.05 11.601169921875 1.053 L 11.601169921875 1.083 Q 11.560669921875 1.08 11.499169921875 1.07925 Q 11.437669921875 1.0785 11.374669921875 1.0785 Q 11.301169921875 1.0785 11.238919921875 1.07925 Q 11.176669921875 1.08 11.137669921875 1.083 L 11.137669921875 1.053 Q 11.185669921875 1.05 11.209669921875 1.041 Q 11.233669921875 1.032 11.241919921875 1.005 Q 11.250169921875 0.978 11.250169921875 0.9239999999999999 L 11.250169921875 0.17999999999999994 Q 11.250169921875 0.12449999999999994 11.241919921875 0.09824999999999995 Q 11.233669921875 0.07199999999999984 11.208919921875 0.062249999999999917 Q 11.184169921875 0.05249999999999999 11.137669921875 0.050999999999999934 L 11.137669921875 0.020999999999999908 Q 11.176669921875 0.022499999999999964 11.238919921875 0.02400000000000002 Q 11.301169921875 0.025499999999999856 11.374669921875 0.025499999999999856 Q 11.437669921875 0.025499999999999856 11.499169921875 0.02400000000000002 Q 11.560669921875 0.022499999999999964 11.601169921875 0.020999999999999908 M 12.234141357421874 0 Q 12.393141357421875 0 12.512391357421874 0.0645 Q 12.631641357421875 0.1289999999999999 12.697641357421874 0.24974999999999992 Q 12.763641357421875 0.37049999999999994 12.763641357421875 0.5429999999999999 Q 12.763641357421875 0.711 12.696141357421876 0.837 Q 12.628641357421875 0.963 12.507891357421874 1.0334999999999999 Q 12.387141357421875 1.1039999999999999 12.232641357421874 1.1039999999999999 Q 12.073641357421875 1.1039999999999999 11.954391357421875 1.0394999999999999 Q 11.835141357421875 0.975 11.769141357421875 0.8534999999999999 Q 11.703141357421876 0.732 11.703141357421876 0.5609999999999999 Q 11.703141357421876 0.3929999999999999 11.771391357421875 0.2669999999999999 Q 11.839641357421876 0.1409999999999999 11.958891357421875 0.07050000000000001 Q 12.078141357421876 0 12.234141357421874 0 M 12.228141357421874 0.026999999999999913 Q 12.144141357421875 0.026999999999999913 12.081891357421876 0.09449999999999992 Q 12.019641357421875 0.16199999999999992 11.985891357421876 0.28049999999999997 Q 11.952141357421874 0.3989999999999999 11.952141357421874 0.5549999999999999 Q 11.952141357421874 0.714 11.990391357421874 0.83175 Q 12.028641357421876 0.9495 12.093891357421874 1.01325 Q 12.159141357421875 1.077 12.238641357421875 1.077 Q 12.322641357421874 1.077 12.384891357421875 1.0095 Q 12.447141357421875 0.942 12.480891357421875 0.82275 Q 12.514641357421874 0.7035 12.514641357421874 0.5489999999999999 Q 12.514641357421874 0.38849999999999996 12.476391357421875 0.27149999999999996 Q 12.438141357421875 0.15449999999999997 12.372891357421874 0.09075 Q 12.307641357421875 0.026999999999999913 12.228141357421874 0.026999999999999913 M 13.855692626953125 0.020999999999999908 L 13.855692626953125 0.050999999999999934 Q 13.807692626953125 0.05699999999999994 13.783692626953124 0.07574999999999998 Q 13.759692626953125 0.09449999999999992 13.751442626953125 0.1349999999999999 Q 13.743192626953125 0.1755 13.743192626953125 0.249 L 13.743192626953125 1.0859999999999999 Q 13.725192626953126 1.0845 13.706442626953125 1.0845 Q 13.687692626953124 1.0845 13.666692626953125 1.0859999999999999 L 13.015692626953125 0.2609999999999999 L 13.015692626953125 0.837 Q 13.015692626953125 0.9195 13.024692626953126 0.96375 Q 13.033692626953124 1.008 13.064442626953126 1.02675 Q 13.095192626953125 1.0454999999999999 13.161192626953126 1.053 L 13.161192626953126 1.083 Q 13.132692626953125 1.08 13.086192626953125 1.07925 Q 13.039692626953125 1.0785 12.999192626953125 1.0785 Q 12.964692626953125 1.0785 12.928692626953126 1.07925 Q 12.892692626953124 1.08 12.868692626953125 1.083 L 12.868692626953125 1.053 Q 12.916692626953125 1.0454999999999999 12.940692626953124 1.0274999999999999 Q 12.964692626953125 1.0095 12.972942626953126 0.9682499999999999 Q 12.981192626953124 0.9269999999999999 12.981192626953124 0.855 L 12.981192626953124 0.17999999999999994 Q 12.981192626953124 0.12449999999999994 12.972942626953126 0.09824999999999995 Q 12.964692626953125 0.07199999999999984 12.939942626953124 0.062249999999999917 Q 12.915192626953125 0.05249999999999999 12.868692626953125 0.050999999999999934 L 12.868692626953125 0.020999999999999908 Q 12.892692626953124 0.022499999999999964 12.928692626953126 0.02400000000000002 Q 12.964692626953125 0.025499999999999856 12.999192626953125 0.025499999999999856 Q 13.035192626953124 0.025499999999999856 13.068192626953126 0.02400000000000002 Q 13.101192626953125 0.022499999999999964 13.128192626953124 0.020999999999999908 L 13.708692626953125 0.7364999999999999 L 13.708692626953125 0.2669999999999999 Q 13.708692626953125 0.1845 13.699692626953125 0.14024999999999999 Q 13.690692626953124 0.09599999999999997 13.659942626953125 0.07650000000000001 Q 13.629192626953126 0.05699999999999994 13.563192626953125 0.050999999999999934 L 13.563192626953125 0.020999999999999908 Q 13.591692626953124 0.022499999999999964 13.638192626953124 0.02400000000000002 Q 13.684692626953126 0.025499999999999856 13.725192626953126 0.025499999999999856 Q 13.761192626953125 0.025499999999999856 13.796442626953125 0.02400000000000002 Q 13.831692626953124 0.022499999999999964 13.855692626953125 0.020999999999999908" fill="#f9f9f9" fill-rule="nonzero"></path></g><g><path d=" M 0.28125 1.9868625 Q 0.225 1.9868625 0.17925 1.9643625 Q 0.1335 1.9418625 0.1005 1.9032375000000001 Q 0.0675 1.8646125 0.0495 1.8162375000000002 Q 0.0315 1.7678625000000001 0.0315 1.7168625 Q 0.0315 1.6636125000000002 0.05025 1.6152375 Q 0.069 1.5668625 0.10312500000000001 1.5289875 Q 0.13725 1.4911125 0.183 1.4689875 Q 0.22875 1.4468625 0.28200000000000003 1.4468625 Q 0.33825 1.4468625 0.384 1.4701125 Q 0.42975 1.4933625 0.46237500000000004 1.5323625 Q 0.495 1.5713625 0.513 1.6193625 Q 0.531 1.6673625 0.531 1.7176125 Q 0.531 1.7708625 0.51225 1.8192375 Q 0.4935 1.8676125000000001 0.45975 1.9054875 Q 0.426 1.9433625 0.38025000000000003 1.9651125 Q 0.3345 1.9868625 0.28125 1.9868625 M 0.084 1.7168625 Q 0.084 1.7603625 0.09825 1.8004875 Q 0.1125 1.8406125 0.13875 1.8717375 Q 0.165 1.9028625000000001 0.201375 1.9212375000000002 Q 0.23775000000000002 1.9396125 0.28125 1.9396125 Q 0.327 1.9396125 0.363375 1.9204875000000001 Q 0.39975 1.9013625 0.42562500000000003 1.8694875 Q 0.4515 1.8376125 0.465 1.7978625000000001 Q 0.47850000000000004 1.7581125 0.47850000000000004 1.7168625 Q 0.47850000000000004 1.6733625 0.46425 1.6336125 Q 0.45 1.5938625000000002 0.423375 1.5623625 Q 0.39675 1.5308625 0.36075 1.5128625 Q 0.32475 1.4948625 0.28125 1.4948625 Q 0.23625000000000002 1.4948625 0.199875 1.5136125 Q 0.1635 1.5323625 0.137625 1.5642375 Q 0.11175 1.5961125 0.097875 1.6358625 Q 0.084 1.6756125000000002 0.084 1.7168625 M 0.809999267578125 1.4543625 L 0.859499267578125 1.4543625 L 0.934499267578125 1.6433625 L 1.010249267578125 1.4543625 L 1.060499267578125 1.4543625 L 0.967499267578125 1.6816125 L 1.069499267578125 1.9223625 L 1.2622492675781252 1.4506125 L 1.319249267578125 1.4506125 L 1.093499267578125 1.9831125 L 1.046999267578125 1.9831125 L 0.935249267578125 1.7198625 L 0.8227492675781249 1.9831125 L 0.776999267578125 1.9831125 L 0.551999267578125 1.4506125 L 0.608249267578125 1.4506125 L 0.801749267578125 1.9223625 L 0.902999267578125 1.6816125 L 0.809999267578125 1.4543625 M 1.3942646484375 1.9831125 L 1.3942646484375 1.4506125 L 1.4467646484375 1.4506125 L 1.4467646484375 1.9366125 L 1.7542646484375 1.9366125 L 1.7542646484375 1.9831125 L 1.3942646484375 1.9831125 M 2.1427705078125 1.5503625 Q 2.1315205078125 1.5376125 2.1165205078125 1.5274875 Q 2.1015205078125 1.5173625 2.0827705078125 1.5098625 Q 2.0640205078125 1.5023625 2.0426455078125 1.4978625 Q 2.0212705078125 1.4933625 1.9972705078125 1.4933625 Q 1.9275205078125 1.4933625 1.8948955078125 1.5199875 Q 1.8622705078125 1.5466125000000002 1.8622705078125 1.5923625000000001 Q 1.8622705078125 1.6238625 1.8776455078125 1.6418625 Q 1.8930205078125 1.6598625 1.9260205078125 1.6711125 Q 1.9590205078125 1.6823625 2.0100205078125 1.6943625 Q 2.0670205078125 1.7063625 2.1082705078125 1.7228625000000002 Q 2.1495205078125 1.7393625000000001 2.1720205078125 1.7674875 Q 2.1945205078125 1.7956125 2.1945205078125 1.8436125 Q 2.1945205078125 1.8803625 2.1802705078125 1.9073625 Q 2.1660205078125 1.9343625 2.1405205078125 1.9523625 Q 2.1150205078125 1.9703625 2.0797705078125 1.9789875000000001 Q 2.0445205078125 1.9876125 2.0025205078125 1.9876125 Q 1.9612705078125 1.9876125 1.9233955078125 1.9789875000000001 Q 1.8855205078125 1.9703625 1.8517705078125 1.9534875 Q 1.8180205078125 1.9366125 1.7887705078125 1.9103625 L 1.8150205078125 1.8676125000000001 Q 1.8292705078125 1.8826125 1.8491455078125 1.8957375 Q 1.8690205078125 1.9088625000000001 1.8933955078125 1.9193625 Q 1.9177705078125 1.9298625 1.9458955078125 1.9354875 Q 1.9740205078125 1.9411125 2.0040205078125 1.9411125 Q 2.0677705078125 1.9411125 2.1033955078125 1.9178625 Q 2.1390205078125 1.8946125 2.1390205078125 1.8488625 Q 2.1390205078125 1.8158625000000002 2.1210205078125 1.7959875 Q 2.1030205078125 1.7761125 2.0670205078125 1.7633625 Q 2.0310205078125 1.7506125000000001 1.9785205078125 1.7386125000000001 Q 1.9230205078125 1.7258625 1.8847705078125 1.7101125000000001 Q 1.8465205078125 1.6943625 1.8273955078125 1.6684875000000001 Q 1.8082705078125 1.6426125 1.8082705078125 1.5998625 Q 1.8082705078125 1.5503625 1.8326455078125 1.5162375000000001 Q 1.8570205078125 1.4821125 1.8997705078125 1.4644875000000002 Q 1.9425205078125 1.4468625 1.9980205078125 1.4468625 Q 2.0332705078125 1.4468625 2.0636455078125 1.4539875000000002 Q 2.0940205078125 1.4611125 2.1198955078125 1.4746125 Q 2.1457705078125002 1.4881125000000002 2.1682705078125 1.5083625 L 2.1427705078125 1.5503625 M 2.8342763671875 1.4971125 L 2.6445263671875 1.4971125 L 2.6445263671875 1.9831125 L 2.5920263671875 1.9831125 L 2.5920263671875 1.4971125 L 2.4022763671875 1.4971125 L 2.4022763671875 1.4506125 L 2.8342763671875 1.4506125 L 2.8342763671875 1.4971125 M 3.271515380859375 1.9366125 L 3.271515380859375 1.9831125 L 2.913765380859375 1.9831125 L 2.913765380859375 1.4506125 L 3.264765380859375 1.4506125 L 3.264765380859375 1.4971125 L 2.966265380859375 1.4971125 L 2.966265380859375 1.6891125 L 3.226515380859375 1.6891125 L 3.226515380859375 1.7333625000000001 L 2.966265380859375 1.7333625000000001 L 2.966265380859375 1.9366125 L 3.271515380859375 1.9366125 M 3.53552197265625 1.4506125 L 3.57977197265625 1.4506125 L 3.80102197265625 1.9831125 L 3.74552197265625 1.9831125 L 3.67652197265625 1.8166125 L 3.43727197265625 1.8166125 L 3.36902197265625 1.9831125 L 3.31277197265625 1.9831125 L 3.53552197265625 1.4506125 M 3.66452197265625 1.7753625 L 3.55727197265625 1.5121125 L 3.44852197265625 1.7753625 L 3.66452197265625 1.7753625 M 4.349291015625 1.9831125 L 4.349291015625 1.5496125 L 4.156541015625 1.8863625000000002 L 4.123541015625 1.8863625000000002 L 3.930041015625 1.5496125 L 3.930041015625 1.9831125 L 3.877541015625 1.9831125 L 3.877541015625 1.4506125 L 3.931541015625 1.4506125 L 4.139291015625 1.8151125000000001 L 4.348541015625 1.4506125 L 4.401791015625 1.4506125 L 4.401791015625 1.9831125 L 4.349291015625 1.9831125" fill="#e9e9e5" fill-rule="nonzero"></path></g><g clip-path="url(#SvgjsClipPath1023)"><g clip-path="url(#SvgjsClipPath102299868b4d-7b83-4204-b35f-7f71dd485531)"><path d=" M -0.4036892093075033 1.9643129060717488 L -0.5984794607436745 1.4887913939979551 C -0.6125278995237311 1.4544529863538558 -0.6459491841522751 1.4320217086980964 -0.6830501922023404 1.4320302736525132 L -2.9185880589056987 1.4320302736525132 C -2.9556954653243523 1.4320145721346575 -2.9891254979305963 1.4544470613040814 -3.0031763580277357 1.4887913939979551 L -3.1979139064737994 1.9643129060717488 C -3.204066739357413 1.9793419294031263 -3.202328831698748 1.9964483880003003 -3.193279200728853 2.0099329374587533 C -3.184229569758957 2.0234174869172072 -3.169057446546699 2.0315080941873025 -3.152817714605414 2.0315092184584147 L -0.4488029688392583 2.0315092184584147 C -0.432560126159395 2.0315139496249977 -0.4173826048193381 2.0234257334354657 -0.4083288093584305 2.0099402320188067 C -0.39927501389751896 1.9964547306021472 -0.3975351969455283 1.9793448085646275 -0.4036892093075033 1.9643129060717492 Z M -1.573695589687091 1.9455506415935901 L -2.0279075260942125 1.9455506415935901 C -2.0430711196423568 1.9455506423831315 -2.0570828582383474 1.9374609619842227 -2.064664655244274 1.924328904892727 C -2.0722464522501984 1.911196847801231 -2.072246452257466 1.8950174860264628 -2.0646646552633343 1.881885428928157 C -2.0570828582692045 1.8687533718298508 -2.0430711196804796 1.8606636914183565 -2.027907526132335 1.860663692194278 L -1.5737131573504581 1.860663692194278 C -1.550272274399608 1.860663693414804 -1.5312696848502314 1.8796662839621447 -1.5312696848607599 1.9031071669129958 C -1.5312696848712883 1.9265480498638468 -1.5502722744377326 1.945550640394119 -1.5737131573885828 1.9455506415935901 Z" fill="#91ca9d" transform="matrix(1,0,0,1,0,0)" fill-rule="nonzero"></path></g><g clip-path="url(#SvgjsClipPath102299868b4d-7b83-4204-b35f-7f71dd485531)"><path d=" M -0.8025981414288128 0.053372755438566455 C -0.7547116281117936 0.052796549677088495 -0.7154057465576948 0.09111192301602519 -0.7147598245834996 0.13899754669937886 L -0.7147598245834996 1.1564814737087619 C -0.7154057465576948 1.2043670973921157 -0.7547116281117936 1.2426824707310522 -0.8025981414288128 1.2421062649695744 L -1.4104392939983885 1.2421062649695744 L -1.6815610427731358 0.9710196515215653 C -1.6952586501005866 0.9572430769177082 -1.7004512064330157 0.9371445923813212 -1.6951408465574223 0.9184572027213294 C -1.6809637422185875 0.8679150352085354 -1.6862340412293089 0.8170215144283602 -1.713903111035582 0.7893524446220863 C -1.7515681812988513 0.7516873743588156 -1.8519498097896756 0.7074871333222534 -1.9010689965695768 0.7128804059765556 L -1.7924481339586606 0.8215012685874714 L -1.8390551448767858 0.9240437196726914 L -1.9415975959620053 0.9706507305908151 L -2.0502184585729215 0.8620298679798993 C -2.0556117312272235 0.9112193254132754 -2.0114114901906612 1.0115306832506246 -1.9737464199273917 1.049195753513895 C -1.9460773501211168 1.076864823320169 -1.8951838293409418 1.0821351223308882 -1.8446416618281478 1.0679580179920545 C -1.8259542721681554 1.0626476581164601 -1.805855787631769 1.0678402144488888 -1.7920792130279124 1.0815378217763398 L -1.5297412959376957 1.3438757388665556 L -0.7374396779929611 1.3438757388665556 C -0.6820558079008365 1.3438660377155762 -0.6371634546327138 1.2989658196343359 -0.637163455482352 1.2435819486925759 L -0.637163455482352 0.05189707171556518 C -0.637163455482352 -0.003486800764788557 -0.6820558094392819 -0.04838701815734108 -0.7374396795315539 -0.04839671845868422 L -1.9731491193728434 -0.04839671845868422 L -1.8713796454758627 0.05337275543856648 Z" fill="#d4d6c9" transform="matrix(1,0,0,1,0,0)" fill-rule="nonzero"></path></g><g clip-path="url(#SvgjsClipPath102299868b4d-7b83-4204-b35f-7f71dd485531)"><path d=" M -2.8641283024616047 1.3438757388665556 L -1.628471564071829 1.3438757388665556 L -1.7302410379688118 1.2421062649695744 L -2.798987406689119 1.2421062649695744 C -2.8468739200061366 1.2426824707310522 -2.886179801560237 1.2043670973921157 -2.8868257235344332 1.1564814737087619 L -2.8868257235344332 0.13899754669937886 C -2.886179801560237 0.09111192301602508 -2.8468739200061366 0.052796549677088495 -2.798987406689119 0.05337275543856648 L -2.1911462541195434 0.05337275543856648 L -1.920077208334904 0.32445936888657567 C -1.9063695418174975 0.33823021307286555 -1.9011754686154536 0.35833456885619064 -1.9064974045506196 0.3770218176868118 C -1.9206745088894523 0.42756398519960565 -1.915404209878733 0.47845750597978076 -1.8877351400724598 0.5061265757860547 C -1.8500700698091885 0.5437916460493255 -1.7496884413183642 0.5879918870858877 -1.700569254538465 0.5825986144315856 L -1.8091901171493792 0.4739777518206697 L -1.762583106231256 0.3714353007354497 L -1.6600406551460365 0.32482828981732603 L -1.5514197925351203 0.4334491524282417 C -1.546026519880818 0.3842596949948656 -1.5902267609173786 0.28394833715751666 -1.62789183118065 0.24628326689424596 C -1.655560900986925 0.21861419708797192 -1.7064368541037307 0.21334389807725307 -1.756996589279894 0.22752100241608675 C -1.7756839789398844 0.23283136229168083 -1.795782463476273 0.227638805959252 -1.8095590380801294 0.21394119863180117 L -2.0718266845168687 -0.048396718458414756 L -2.8641283024616047 -0.048396718458414756 C -2.919512172553729 -0.048387017307435574 -2.964404525821854 -0.003486799226195221 -2.964404524972217 0.05189707171556515 L -2.964404524972217 1.2435468133658376 C -2.964413844914843 1.270149423853416 -2.9538537341185562 1.2956659064622178 -2.9350477893370166 1.31448173523715 C -2.9162418445554787 1.3332975640120828 -2.8907309141738855 1.343871080731728 -2.864128302461581 1.3438757388665556 Z" fill="#91ca9d" transform="matrix(1,0,0,1,0,0)" fill-rule="nonzero"></path></g></g></g><defs><clipPath id="SvgjsClipPath1023"><path d=" M -3.201567980454563 -0.048396718458414756 h 2.8015679804545632 v 2.0799059369168296 h -2.8015679804545632 Z"></path></clipPath><clipPath id="SvgjsClipPath102299868b4d-7b83-4204-b35f-7f71dd485531"><path d=" M -3.201567980454563 -0.048396718458414756 L -0.3999999999999999 -0.048396718458414756 L -0.3999999999999999 2.0315092184584147 L -3.201567980454563 2.0315092184584147 Z"></path></clipPath></defs></svg>